<svg xmlns="http://www.w3.org/2000/svg" version="1.1" xmlns:xlink="http://www.w3.org/1999/xlink" xmlns:svgjs="http://svgjs.com/svgjs" width="1440" height="560" preserveAspectRatio="none" viewBox="0 0 1440 560">
    <g mask="url(&quot;#SvgjsMask1118&quot;)" fill="none">
        <rect width="1440" height="560" x="0" y="0" fill="rgba(247, 217, 223, 1)"></rect>
        <path d="M0,527.434C119.309,554.194,252.736,619.248,358.149,557.29C463.2,495.545,449.324,339.017,504.989,230.621C564.314,115.097,690.3,29.727,695.703,-100.027C701.323,-234.994,624.233,-362.191,533.854,-462.587C444.451,-561.9,323.427,-627.981,193.255,-658.166C67.604,-687.303,-74.285,-695.806,-184.757,-629.224C-289.729,-565.956,-284.065,-408.13,-368.694,-319.475C-460.318,-223.492,-637.989,-221.106,-690.619,-99.296C-743.532,23.168,-715.82,185.091,-631.295,288.303C-548.204,389.764,-390.546,370.417,-267.907,416.872C-175.696,451.801,-96.215,505.854,0,527.434" fill="#e78c9e"></path>
        <path d="M1440 1090.362C1554.907 1104.3490000000002 1677.859 1143.4389999999999 1780.231 1089.409 1884.333 1034.465 1948.568 919.8109999999999 1978.7269999999999 806.028 2006.644 700.705 1942.818 597.081 1939.595 488.169 1935.795 359.751 2038.309 211.41899999999998 1958.163 111.00900000000001 1878.908 11.715000000000032 1716.704 55.403999999999996 1589.777 49.90499999999997 1490.588 45.60799999999995 1397.695 66.01299999999998 1299.789 82.48599999999999 1187.031 101.45800000000003 1044.217 65.79700000000003 971.392 153.949 898.268 242.464 970.271 376.764 962.071 491.284 954.6379999999999 595.086 890.341 697.017 925.491 794.969 961.35 894.898 1057.066 959.729 1149.138 1012.5899999999999 1237.973 1063.593 1338.316 1077.984 1440 1090.362" fill="#ffffff"></path>
    </g>
    <defs>
        <mask id="SvgjsMask1118">
            <rect width="1440" height="560" fill="#ffffff"></rect>
        </mask>
    </defs>
</svg>