<svg xmlns="http://www.w3.org/2000/svg" version="1.1" xmlns:xlink="http://www.w3.org/1999/xlink" xmlns:svgjs="http://svgjs.com/svgjs" width="1440" height="560" preserveAspectRatio="none" viewBox="0 0 1440 560">
    <g mask="url(&quot;#SvgjsMask1004&quot;)" fill="none">
        <rect width="1440" height="560" x="0" y="0" fill="rgba(247, 217, 223, 1)"></rect>
        <path d="M0,374.623C68.6,365.899,120.38,315.169,179.635,279.518C240.985,242.607,333.69,230.319,353.975,161.655C374.835,91.044,298.467,30.016,273.844,-39.373C255.176,-91.98,254.153,-147.88,226.857,-196.572C194.378,-254.511,164.256,-324.04,101.719,-346.423C38.873,-368.916,-30.803,-338.94,-91.137,-310.385C-145.36,-284.722,-180.207,-235.326,-222.631,-192.911C-268.779,-146.772,-343.444,-115.287,-351.094,-50.48C-358.761,14.468,-281.936,57.07,-259.388,118.459C-234.032,187.494,-263.941,277.599,-211.613,329.276C-159.224,381.014,-73.042,383.912,0,374.623" fill="#e78c9e"></path>
        <path d="M1440 935.376C1507.213 919.433 1556.584 867.284 1607.426 820.52 1650.489 780.9110000000001 1682.454 734.6220000000001 1712.7060000000001 684.5409999999999 1746.883 627.96 1791.6190000000001 574.837 1795.683 508.86 1800.158 436.20799999999997 1788.998 353.446 1736.186 303.353 1683.785 253.651 1598.173 277.628 1529.226 256.124 1458.608 234.099 1400.976 170.594 1327.186 175.79199999999997 1248.45 181.339 1169.284 221.29899999999998 1122.384 284.785 1076.417 347.00800000000004 1069.8899999999999 431.954 1081.44 508.447 1091.444 574.703 1161.175 614.169 1181.748 677.94 1206.637 755.088 1154.938 857.002 1212.349 914.231 1267.439 969.1469999999999 1364.314 953.329 1440 935.376" fill="#ffffff"></path>
    </g>
    <defs>
        <mask id="SvgjsMask1004">
            <rect width="1440" height="560" fill="#ffffff"></rect>
        </mask>
    </defs>
</svg>