<svg xmlns="http://www.w3.org/2000/svg" version="1.1" xmlns:xlink="http://www.w3.org/1999/xlink" xmlns:svgjs="http://svgjs.com/svgjs" width="1440" height="560" preserveAspectRatio="none" viewBox="0 0 1440 560">
    <g mask="url(&quot;#SvgjsMask1187&quot;)" fill="none">
        <rect width="1440" height="560" x="0" y="0" fill="rgba(247, 217, 223, 1)"></rect>
        <path d="M0,691.405C127.342,687.317,197.782,543.244,302.26,470.325C401.567,401.015,529.024,372.438,598.818,273.471C675.247,165.097,733.988,28.08,705.481,-101.433C677.3,-229.468,547.19,-301.45,452.351,-391.964C366.777,-473.636,291.497,-572.886,177.691,-605.158C64.316,-637.308,-51.406,-592.204,-166.63,-567.49C-291.486,-540.71,-454.937,-561.58,-524.56,-454.534C-596.098,-344.543,-474.583,-200.749,-489.913,-70.439C-504.611,54.495,-648.324,158.881,-610.853,278.967C-574.016,397.022,-417.488,420.938,-314.994,490.14C-209.592,561.305,-127.112,695.485,0,691.405" fill="#e78c9e"></path>
        <path d="M1440 1167.454C1556.085 1181.942 1669.614 1133.344 1771.353 1075.595 1877.373 1015.4169999999999 1989.44 944.677 2033.0439999999999 830.8340000000001 2075.987 718.718 2042.653 591.63 1999.659 479.533 1962.394 382.375 1877.784 318.277 1807.147 241.86599999999999 1739.068 168.22199999999998 1686.52 75.27999999999997 1592.844 39.46199999999999 1496.068 2.45799999999997 1384.826 5.7409999999999854 1288.339 43.490999999999985 1195.578 79.78300000000002 1153.471 182.95600000000002 1073.68 242.582 963.809 324.68600000000004 786.403 331.971 733.15 458.37 681.069 581.988 737.952 737.285 820.815 842.7719999999999 898.892 942.1659999999999 1045.916 940.3330000000001 1157.853 999.029 1256.862 1050.946 1329.066 1153.609 1440 1167.454" fill="#ffffff"></path>
    </g>
    <defs>
        <mask id="SvgjsMask1187">
            <rect width="1440" height="560" fill="#ffffff"></rect>
        </mask>
    </defs>
</svg>