<svg xmlns="http://www.w3.org/2000/svg" version="1.1" xmlns:xlink="http://www.w3.org/1999/xlink" xmlns:svgjs="http://svgjs.com/svgjs" width="1440" height="560" preserveAspectRatio="none" viewBox="0 0 1440 560">
    <g mask="url(&quot;#SvgjsMask1179&quot;)" fill="none">
        <rect width="1440" height="560" x="0" y="0" fill="rgba(247, 217, 223, 1)"></rect>
        <path d="M0,409.151C91.827,425.944,196.08,477.753,273.853,426.124C351.793,374.385,335.472,255.475,365.145,166.756C391.125,89.077,435.628,18.999,437.408,-62.89C439.404,-154.694,429.525,-251.171,375.85,-325.676C320.188,-402.939,231.709,-451.211,139.775,-476.029C49.034,-500.525,-53.174,-507.929,-136.216,-463.908C-215.177,-422.05,-233.692,-320.508,-287.792,-249.373C-337.398,-184.148,-416.811,-141.729,-440.83,-63.382C-466.497,20.341,-466.42,117.072,-423.54,193.424C-381.579,268.139,-292.612,297.606,-216.254,336.498C-147.092,371.725,-76.35,395.189,0,409.151" fill="#e78c9e"></path>
        <path d="M1440 847.5930000000001C1494.245 838.575 1542.831 819.0219999999999 1594.6680000000001 800.669 1663.614 776.259 1748.089 778.338 1794.732 722.001 1843.493 663.106 1870.091 573.251 1841.748 502.237 1813.179 430.65700000000004 1713.629 423.88300000000004 1655.533 373.23900000000003 1608.592 332.32 1592.596 259.745 1535.379 235.168 1476.199 209.748 1410.163 233.30200000000002 1346.141 240.34500000000003 1267.802 248.96300000000002 1170.373 222.091 1118.103 281.075 1065.939 339.93899999999996 1113.6399999999999 433.677 1105.491 511.905 1097.77 586.022 1043.107 659.391 1071.518 728.28 1099.982 797.299 1177.301 835.25 1248.328 858.248 1310.464 878.367 1375.5720000000001 858.304 1440 847.5930000000001" fill="#ffffff"></path>
    </g>
    <defs>
        <mask id="SvgjsMask1179">
            <rect width="1440" height="560" fill="#ffffff"></rect>
        </mask>
    </defs>
</svg>